<?xml version="1.0" standalone="no"?>
<!DOCTYPE svg PUBLIC "-//W3C//DTD SVG 20010904//EN"
 "http://www.w3.org/TR/2001/REC-SVG-20010904/DTD/svg10.dtd">
<svg version="1.0" xmlns="http://www.w3.org/2000/svg"
 width="650.000000pt" height="650.000000pt" viewBox="0 0 650.000000 650.000000"
 preserveAspectRatio="xMidYMid meet">
<metadata>
Created by potrace 1.14, written by Peter Selinger 2001-2017
</metadata>
<g transform="translate(0.000000,650.000000) scale(0.100000,-0.100000)"
fill="#000000" stroke="none">
<path d="M3118 6458 c-609 -27 -1202 -247 -1723 -636 -609 -456 -1021 -1077
-1210 -1822 -73 -288 -96 -478 -95 -791 0 -535 101 -969 332 -1433 76 -153 94
-184 199 -341 131 -197 220 -307 363 -451 173 -173 308 -284 496 -409 271
-179 425 -257 717 -361 183 -65 365 -111 593 -150 158 -28 178 -29 470 -29
286 1 315 3 465 28 495 85 907 246 1305 511 122 81 160 109 255 190 145 124
300 273 374 361 401 469 630 972 727 1595 31 206 44 585 25 786 -31 326 -89
561 -225 911 -211 544 -586 1039 -1051 1390 -44 33 -150 105 -235 160 -247
160 -453 256 -747 348 -396 125 -653 161 -1035 143z m370 -238 c112 -27 269
-89 367 -145 226 -129 439 -353 554 -583 51 -102 100 -262 117 -384 56 -394
-83 -792 -375 -1070 -122 -117 -231 -184 -455 -278 -167 -71 -255 -129 -347
-228 -78 -84 -132 -183 -159 -288 -19 -72 -20 -111 -20 -551 l0 -475 -64 62
c-60 59 -64 66 -70 119 -9 80 -47 151 -115 214 -72 66 -120 89 -265 126 -109
28 -176 56 -241 100 -80 55 -112 -10 -85 -177 39 -240 179 -426 363 -484 68
-21 162 -23 220 -6 l40 12 61 -65 c34 -35 74 -91 90 -124 57 -115 58 -131 63
-643 l5 -472 -48 0 c-222 1 -642 92 -906 196 -218 86 -388 176 -585 311 -169
116 -250 181 -383 314 -579 574 -876 1326 -821 2079 46 622 324 1172 840 1663
51 48 97 85 102 81 5 -3 8 -1 7 3 -2 5 26 34 62 64 439 370 986 598 1557 649
156 14 394 4 491 -20z m829 -179 c112 -42 184 -76 303 -144 315 -180 584 -391
793 -625 137 -151 182 -210 282 -362 168 -255 281 -527 347 -835 28 -128 31
-161 35 -385 7 -348 -22 -562 -118 -875 -124 -399 -376 -802 -698 -1113 -105
-101 -303 -266 -397 -329 -153 -104 -407 -239 -578 -307 -233 -93 -671 -186
-877 -186 l-70 0 3 743 3 742 23 60 c26 69 52 111 111 176 l41 47 42 -15 c109
-38 247 -25 346 34 155 91 272 320 272 534 0 102 -33 121 -117 69 -44 -27
-100 -43 -313 -91 -62 -13 -138 -52 -186 -93 -58 -50 -107 -147 -110 -217 -2
-54 -4 -58 -58 -109 l-56 -53 0 182 c0 295 35 408 164 536 76 75 119 100 361
206 351 155 558 346 710 653 103 210 145 379 152 617 8 252 -32 433 -151 683
-71 151 -138 246 -266 378 -64 66 -98 108 -88 108 9 0 52 -13 95 -29z"/>
<path d="M3125 5406 c-74 -18 -171 -71 -227 -124 -250 -234 -191 -680 111
-841 203 -108 437 -73 602 89 214 210 211 545 -8 754 -119 114 -311 163 -478
122z"/>
</g>
</svg>
